<svg xmlns="http://www.w3.org/2000/svg" fill="none" viewBox="0 0 24 24" stroke-width="1.5" stroke="currentColor" class="w-6 h-6">
  <path stroke-linecap="round" stroke-linejoin="round" d="M9.594 3.94c.09-.542.56-.94 1.11-.94h2.593c.55 0 1.02.398 1.11.94l.213 1.281c.063.374.318.686.677.865 1.12.56 2.027 1.45 2.587 2.573.344.6.826 1.082 1.43 1.425l1.28.213c.543.09.94.56.94 1.11v2.593c0 .55-.397 1.02-.94 1.11l-1.281.213c-.374.063-.686.318-.865.677-.56 1.12-1.45 2.027-2.573 2.587-.6.344-1.082.826-1.425 1.43l-.213 1.28c-.09.543-.56.94-1.11.94h-2.593c-.55 0-1.02-.397-1.11-.94l-.213-1.281c-.063-.374-.318-.686-.677-.865-1.12-.56-2.027-1.45-2.587-2.573-.344-.6-.826-1.082-1.43-1.425l-1.28-.213c-.543-.09-.94-.56-.94-1.11v-2.593c0-.55.397-1.02.94-1.11l1.281-.213c.374-.063.686-.318.865-.677C6.012 8.85 6.918 7.964 8.04 7.404c.6-.344 1.082-.826 1.425-1.43l.213-1.28Z" />
  <path stroke-linecap="round" stroke-linejoin="round" d="M15 12a3 3 0 1 1-6 0 3 3 0 0 1 6 0Z" />
</svg> 